<svg width="140" height="42" viewBox="0 0 140 42" fill="none" xmlns="http://www.w3.org/2000/svg">
<path d="M19.7358 41.2366L35.1361 32.2754C35.9307 31.8129 36.581 30.6776 36.581 29.7525L36.581 11.8293C36.581 10.9042 35.9307 9.76919 35.1361 9.30666L19.7358 0.346681C18.9409 -0.11556 17.6402 -0.11556 16.8453 0.346681L1.44525 9.30812C0.650362 9.77065 8.23857e-07 10.9057 7.83421e-07 11.8308L0 29.7534C-4.04361e-08 30.6784 0.650361 31.8138 1.44525 32.2763L16.8453 41.2375C17.6402 41.6991 18.9409 41.6991 19.7358 41.2366Z" fill="#0088CC"/>
<mask id="path-2-outside-1_125_2187" maskUnits="userSpaceOnUse" x="10.8811" y="10.881" width="15" height="21" fill="black">
<rect fill="white" x="10.8811" y="10.881" width="15" height="21"/>
<path fill-rule="evenodd" clip-rule="evenodd" d="M22.7446 13.6917C23.1777 14.2419 23.4014 14.9256 23.3764 15.6229L23.4133 16.7753C23.4185 16.9372 23.5512 17.0657 23.7132 17.0657H24.394C24.5597 17.0657 24.694 16.9314 24.694 16.7657V15.6229C24.7228 15.1205 24.6489 14.6174 24.4768 14.1439C24.3047 13.6704 24.0379 13.2362 23.6923 12.8672C23.3079 12.5227 22.8573 12.2586 22.3674 12.0908C21.8775 11.9229 21.3585 11.8546 20.8413 11.8902H15.7018C15.1897 11.8588 14.6765 11.9291 14.1922 12.0969C13.7079 12.2646 13.2623 12.5266 12.8816 12.8672C12.5375 13.2368 12.2721 13.6713 12.1013 14.1448C11.9305 14.6183 11.8578 15.121 11.8876 15.6229V26.9053C11.8578 27.4072 11.9305 27.91 12.1013 28.3834C12.2721 28.8569 12.5375 29.2914 12.8816 29.661C13.2642 29.9976 13.7106 30.2553 14.1948 30.4192C14.679 30.583 15.1913 30.6496 15.7018 30.6152H20.8413C21.3495 30.6774 21.8653 30.6246 22.3499 30.4607C22.8345 30.2967 23.2751 30.0259 23.6387 29.6687C24.0023 29.3115 24.2792 28.8771 24.4487 28.3985C24.6181 27.9198 24.6757 27.4092 24.617 26.9053V21.6176C24.617 21.4519 24.4827 21.3176 24.317 21.3176H14.977C14.8113 21.3176 14.677 21.4519 14.677 21.6176V22.1244C14.677 22.2901 14.8113 22.4244 14.977 22.4244H23.0456C23.2113 22.4244 23.3456 22.5587 23.3456 22.7244V26.8824C23.3854 27.5817 23.16 28.2704 22.7138 28.8137C22.4702 29.0558 22.177 29.2431 21.8539 29.363C21.5308 29.4828 21.1855 29.5324 20.8413 29.5083H15.7018C15.3543 29.549 15.002 29.5109 14.6714 29.397C14.3409 29.2832 14.0408 29.0964 13.7937 28.8509C13.5467 28.6054 13.3591 28.3076 13.2451 27.9798C13.1312 27.652 13.0938 27.3029 13.1359 26.9587V15.6229C13.0932 14.9168 13.3342 14.2225 13.8063 13.6917C14.0567 13.4525 14.3544 13.2674 14.6806 13.1478C15.0069 13.0283 15.3546 12.9769 15.7018 12.997H20.8413C21.1904 12.97 21.5412 13.018 21.8697 13.1379C22.1982 13.2579 22.4967 13.4467 22.7446 13.6917ZM18.4343 24.7001H18.7722C18.9379 24.7001 19.0722 24.8344 19.0722 25.0001V27.214C19.0722 27.3797 18.9379 27.514 18.7722 27.514H18.4343C18.2686 27.514 18.1342 27.3797 18.1342 27.214V25.0001C18.1342 24.8344 18.2686 24.7001 18.4343 24.7001Z"/>
</mask>
<path fill-rule="evenodd" clip-rule="evenodd" d="M22.7446 13.6917C23.1777 14.2419 23.4014 14.9256 23.3764 15.6229L23.4133 16.7753C23.4185 16.9372 23.5512 17.0657 23.7132 17.0657H24.394C24.5597 17.0657 24.694 16.9314 24.694 16.7657V15.6229C24.7228 15.1205 24.6489 14.6174 24.4768 14.1439C24.3047 13.6704 24.0379 13.2362 23.6923 12.8672C23.3079 12.5227 22.8573 12.2586 22.3674 12.0908C21.8775 11.9229 21.3585 11.8546 20.8413 11.8902H15.7018C15.1897 11.8588 14.6765 11.9291 14.1922 12.0969C13.7079 12.2646 13.2623 12.5266 12.8816 12.8672C12.5375 13.2368 12.2721 13.6713 12.1013 14.1448C11.9305 14.6183 11.8578 15.121 11.8876 15.6229V26.9053C11.8578 27.4072 11.9305 27.91 12.1013 28.3834C12.2721 28.8569 12.5375 29.2914 12.8816 29.661C13.2642 29.9976 13.7106 30.2553 14.1948 30.4192C14.679 30.583 15.1913 30.6496 15.7018 30.6152H20.8413C21.3495 30.6774 21.8653 30.6246 22.3499 30.4607C22.8345 30.2967 23.2751 30.0259 23.6387 29.6687C24.0023 29.3115 24.2792 28.8771 24.4487 28.3985C24.6181 27.9198 24.6757 27.4092 24.617 26.9053V21.6176C24.617 21.4519 24.4827 21.3176 24.317 21.3176H14.977C14.8113 21.3176 14.677 21.4519 14.677 21.6176V22.1244C14.677 22.2901 14.8113 22.4244 14.977 22.4244H23.0456C23.2113 22.4244 23.3456 22.5587 23.3456 22.7244V26.8824C23.3854 27.5817 23.16 28.2704 22.7138 28.8137C22.4702 29.0558 22.177 29.2431 21.8539 29.363C21.5308 29.4828 21.1855 29.5324 20.8413 29.5083H15.7018C15.3543 29.549 15.002 29.5109 14.6714 29.397C14.3409 29.2832 14.0408 29.0964 13.7937 28.8509C13.5467 28.6054 13.3591 28.3076 13.2451 27.9798C13.1312 27.652 13.0938 27.3029 13.1359 26.9587V15.6229C13.0932 14.9168 13.3342 14.2225 13.8063 13.6917C14.0567 13.4525 14.3544 13.2674 14.6806 13.1478C15.0069 13.0283 15.3546 12.9769 15.7018 12.997H20.8413C21.1904 12.97 21.5412 13.018 21.8697 13.1379C22.1982 13.2579 22.4967 13.4467 22.7446 13.6917ZM18.4343 24.7001H18.7722C18.9379 24.7001 19.0722 24.8344 19.0722 25.0001V27.214C19.0722 27.3797 18.9379 27.514 18.7722 27.514H18.4343C18.2686 27.514 18.1342 27.3797 18.1342 27.214V25.0001C18.1342 24.8344 18.2686 24.7001 18.4343 24.7001Z" fill="#FFD816"/>
<path d="M23.3764 15.6229L23.0766 15.6122L23.0762 15.6224L23.0766 15.6326L23.3764 15.6229ZM22.7446 13.6917L22.9803 13.5061L22.9687 13.4914L22.9554 13.4783L22.7446 13.6917ZM23.4133 16.7753L23.1135 16.7849L23.1135 16.7849L23.4133 16.7753ZM24.694 15.6229L24.3945 15.6058L24.394 15.6144V15.6229H24.694ZM24.4768 14.1439L24.7587 14.0414L24.7587 14.0414L24.4768 14.1439ZM23.6923 12.8672L23.9113 12.6622L23.9023 12.6526L23.8926 12.6438L23.6923 12.8672ZM22.3674 12.0908L22.2701 12.3746L22.3674 12.0908ZM20.8413 11.8902V12.1902H20.8516L20.8619 12.1894L20.8413 11.8902ZM15.7018 11.8902L15.6835 12.1896L15.6926 12.1902H15.7018V11.8902ZM14.1922 12.0969L14.2904 12.3803L14.2904 12.3803L14.1922 12.0969ZM12.8816 12.8672L12.6816 12.6437L12.6714 12.6528L12.6621 12.6628L12.8816 12.8672ZM12.1013 14.1448L12.3835 14.2466L12.3835 14.2466L12.1013 14.1448ZM11.8876 15.6229H12.1876V15.6141L12.1871 15.6052L11.8876 15.6229ZM11.8876 26.9053L12.1871 26.9231L12.1876 26.9142V26.9053H11.8876ZM12.8816 29.661L12.6621 29.8654L12.6722 29.8764L12.6834 29.8862L12.8816 29.661ZM14.1948 30.4192L14.291 30.135L14.291 30.135L14.1948 30.4192ZM15.7018 30.6152V30.3152H15.6917L15.6816 30.3159L15.7018 30.6152ZM20.8413 30.6152L20.8778 30.3174L20.8596 30.3152H20.8413V30.6152ZM22.3499 30.4607L22.446 30.7448L22.446 30.7448L22.3499 30.4607ZM24.617 26.9053H24.317V26.9227L24.319 26.94L24.617 26.9053ZM23.3456 26.8824H23.0456V26.8909L23.0461 26.8994L23.3456 26.8824ZM22.7138 28.8137L22.9253 29.0264L22.936 29.0158L22.9456 29.0041L22.7138 28.8137ZM21.8539 29.363L21.7495 29.0817L21.7495 29.0817L21.8539 29.363ZM20.8413 29.5083L20.8623 29.209L20.8518 29.2083H20.8413V29.5083ZM15.7018 29.5083V29.2083H15.6843L15.667 29.2103L15.7018 29.5083ZM14.6714 29.397L14.5737 29.6807L14.5737 29.6807L14.6714 29.397ZM13.7937 28.8509L13.5823 29.0638L13.5823 29.0638L13.7937 28.8509ZM13.2451 27.9798L12.9618 28.0783L12.9618 28.0783L13.2451 27.9798ZM13.1359 26.9587L13.4337 26.9951L13.4359 26.977V26.9587H13.1359ZM13.1359 15.6229H13.4359V15.6139L13.4353 15.6049L13.1359 15.6229ZM13.8063 13.6917L13.5991 13.4747L13.5902 13.4831L13.5821 13.4923L13.8063 13.6917ZM14.6806 13.1478L14.7839 13.4295L14.7839 13.4295L14.6806 13.1478ZM15.7018 12.997L15.6845 13.2965L15.6931 13.297H15.7018V12.997ZM20.8413 12.997V13.297H20.8529L20.8645 13.2961L20.8413 12.997ZM21.8697 13.1379L21.7668 13.4198L21.7668 13.4198L21.8697 13.1379ZM23.6762 15.6337C23.7037 14.8651 23.4572 14.1119 22.9803 13.5061L22.5088 13.8772C22.8982 14.3719 23.099 14.9861 23.0766 15.6122L23.6762 15.6337ZM23.7132 16.7657L23.6763 15.6133L23.0766 15.6326L23.1135 16.7849L23.7132 16.7657ZM23.7132 16.7657L23.7132 16.7657L23.1135 16.7849C23.1239 17.1086 23.3893 17.3657 23.7132 17.3657V16.7657ZM24.394 16.7657H23.7132V17.3657H24.394V16.7657ZM24.394 16.7657L24.394 16.7657V17.3657C24.7254 17.3657 24.994 17.0971 24.994 16.7657H24.394ZM24.394 15.6229V16.7657H24.994V15.6229H24.394ZM24.1948 14.2464C24.3531 14.6817 24.421 15.144 24.3945 15.6058L24.9936 15.6401C25.0246 15.0969 24.9448 14.5532 24.7587 14.0414L24.1948 14.2464ZM23.4734 13.0723C23.7913 13.4118 24.0366 13.8111 24.1948 14.2464L24.7587 14.0414C24.5727 13.5297 24.2844 13.0606 23.9113 12.6622L23.4734 13.0723ZM22.2701 12.3746C22.7221 12.5295 23.1377 12.7731 23.4921 13.0907L23.8926 12.6438C23.4781 12.2724 22.9924 11.9878 22.4646 11.807L22.2701 12.3746ZM20.8619 12.1894C21.3391 12.1567 21.8181 12.2196 22.2701 12.3746L22.4646 11.807C21.9369 11.6261 21.3778 11.5526 20.8208 11.5909L20.8619 12.1894ZM15.7018 12.1902H20.8413V11.5902H15.7018V12.1902ZM14.2904 12.3803C14.7373 12.2255 15.2109 12.1606 15.6835 12.1896L15.7201 11.5907C15.1686 11.5569 14.6157 11.6326 14.094 11.8134L14.2904 12.3803ZM13.0817 13.0908C13.4327 12.7767 13.8436 12.5351 14.2904 12.3803L14.094 11.8134C13.5723 11.9941 13.092 12.2764 12.6816 12.6437L13.0817 13.0908ZM12.3835 14.2466C12.5405 13.8113 12.7845 13.4117 13.1012 13.0717L12.6621 12.6628C12.2904 13.0619 12.0037 13.5313 11.8191 14.043L12.3835 14.2466ZM12.1871 15.6052C12.1597 15.1439 12.2265 14.6818 12.3835 14.2466L11.8191 14.043C11.6345 14.5547 11.5559 15.0981 11.5881 15.6407L12.1871 15.6052ZM12.1876 26.9053V15.6229H11.5876V26.9053H12.1876ZM12.3835 28.2816C12.2265 27.8464 12.1597 27.3843 12.1871 26.9231L11.5881 26.8875C11.5559 27.4301 11.6345 27.9735 11.8191 28.4852L12.3835 28.2816ZM13.1012 29.4565C12.7845 29.1165 12.5405 28.7169 12.3835 28.2816L11.8191 28.4852C12.0037 28.9969 12.2904 29.4663 12.6621 29.8654L13.1012 29.4565ZM14.291 30.135C13.8442 29.9838 13.4325 29.7461 13.0798 29.4358L12.6834 29.8862C13.0959 30.2491 13.577 30.5268 14.0987 30.7033L14.291 30.135ZM15.6816 30.3159C15.2105 30.3476 14.7377 30.2861 14.291 30.135L14.0987 30.7033C14.6203 30.8798 15.1721 30.9516 15.722 30.9145L15.6816 30.3159ZM20.8413 30.3152H15.7018V30.9152H20.8413V30.3152ZM22.2537 30.1765C21.8119 30.326 21.3414 30.3742 20.8778 30.3174L20.8048 30.9129C21.3577 30.9807 21.9188 30.9232 22.446 30.7448L22.2537 30.1765ZM23.4284 29.4547C23.0973 29.7801 22.6956 30.027 22.2537 30.1765L22.446 30.7448C22.9733 30.5665 23.453 30.2717 23.849 29.8827L23.4284 29.4547ZM24.1659 28.2983C24.0117 28.7339 23.7596 29.1293 23.4284 29.4547L23.849 29.8827C24.2449 29.4936 24.5467 29.0204 24.7315 28.4986L24.1659 28.2983ZM24.319 26.94C24.3724 27.3984 24.3201 27.8628 24.1659 28.2983L24.7315 28.4986C24.9162 27.9767 24.979 27.4201 24.915 26.8706L24.319 26.94ZM24.317 21.6176V26.9053H24.917V21.6176H24.317ZM24.317 21.6176L24.317 21.6176H24.917C24.917 21.2862 24.6484 21.0176 24.317 21.0176V21.6176ZM14.977 21.6176H24.317V21.0176H14.977V21.6176ZM14.977 21.6176L14.977 21.6176V21.0176C14.6456 21.0176 14.377 21.2862 14.377 21.6176H14.977ZM14.977 22.1244V21.6176H14.377V22.1244H14.977ZM14.977 22.1244L14.977 22.1244H14.377C14.377 22.4558 14.6456 22.7244 14.977 22.7244V22.1244ZM23.0456 22.1244H14.977V22.7244H23.0456V22.1244ZM23.6456 22.7244C23.6456 22.393 23.377 22.1244 23.0456 22.1244V22.7244L23.0456 22.7244H23.6456ZM23.6456 26.8824V22.7244H23.0456V26.8824H23.6456ZM22.9456 29.0041C23.4395 28.4029 23.6892 27.6401 23.6451 26.8653L23.0461 26.8994C23.0816 27.5232 22.8806 28.138 22.4819 28.6232L22.9456 29.0041ZM21.9582 29.6442C22.3214 29.5095 22.6512 29.2989 22.9253 29.0264L22.5022 28.6009C22.2892 28.8127 22.0326 28.9767 21.7495 29.0817L21.9582 29.6442ZM20.8204 29.8076C21.207 29.8346 21.5951 29.779 21.9582 29.6442L21.7495 29.0817C21.4665 29.1867 21.1639 29.2302 20.8623 29.209L20.8204 29.8076ZM15.7018 29.8083H20.8413V29.2083H15.7018V29.8083ZM14.5737 29.6807C14.9468 29.8092 15.3445 29.8522 15.7367 29.8063L15.667 29.2103C15.3641 29.2458 15.0571 29.2126 14.7692 29.1134L14.5737 29.6807ZM13.5823 29.0638C13.8616 29.3413 14.2006 29.5521 14.5737 29.6807L14.7692 29.1134C14.4812 29.0142 14.2201 28.8516 14.0052 28.6381L13.5823 29.0638ZM12.9618 28.0783C13.0907 28.4493 13.303 28.7862 13.5823 29.0638L14.0052 28.6381C13.7903 28.4246 13.6274 28.1658 13.5285 27.8813L12.9618 28.0783ZM12.8381 26.9223C12.7905 27.312 12.8328 27.7073 12.9618 28.0783L13.5285 27.8813C13.4296 27.5967 13.3972 27.2938 13.4337 26.9951L12.8381 26.9223ZM12.8359 15.6229V26.9587H13.4359V15.6229H12.8359ZM13.5821 13.4923C13.0573 14.0825 12.7889 14.8549 12.8364 15.641L13.4353 15.6049C13.3975 14.9786 13.6111 14.3625 14.0304 13.891L13.5821 13.4923ZM14.5774 12.8661C14.2126 12.9998 13.8795 13.207 13.5991 13.4747L14.0134 13.9086C14.2339 13.6981 14.4962 13.5349 14.7839 13.4295L14.5774 12.8661ZM15.7191 12.6975C15.331 12.675 14.9422 12.7324 14.5774 12.8661L14.7839 13.4295C15.0715 13.3241 15.3782 13.2788 15.6845 13.2965L15.7191 12.6975ZM20.8413 12.697H15.7018V13.297H20.8413V12.697ZM21.9726 12.8561C21.6037 12.7215 21.2099 12.6676 20.8182 12.6979L20.8645 13.2961C21.1708 13.2724 21.4787 13.3146 21.7668 13.4198L21.9726 12.8561ZM22.9554 13.4783C22.6767 13.2029 22.3414 12.9908 21.9726 12.8561L21.7668 13.4198C22.055 13.5249 22.3166 13.6906 22.5337 13.9051L22.9554 13.4783ZM18.7722 24.4001H18.4343V25.0001H18.7722V24.4001ZM19.3722 25.0001C19.3722 24.6687 19.1036 24.4001 18.7722 24.4001V25.0001L18.7722 25.0001H19.3722ZM19.3722 27.214V25.0001H18.7722V27.214H19.3722ZM18.7722 27.814C19.1036 27.814 19.3722 27.5454 19.3722 27.214H18.7722L18.7722 27.214V27.814ZM18.4343 27.814H18.7722V27.214H18.4343V27.814ZM17.8342 27.214C17.8342 27.5454 18.1029 27.814 18.4343 27.814V27.214L18.4342 27.214H17.8342ZM17.8342 25.0001V27.214H18.4342V25.0001H17.8342ZM18.4343 24.4001C18.1029 24.4001 17.8342 24.6687 17.8342 25.0001H18.4342L18.4343 25.0001V24.4001Z" fill="#FFD816" mask="url(#path-2-outside-1_125_2187)"/>
<path d="M52.4376 31.1856C50.4947 31.1856 49.0541 31.128 48.1156 31.0127V28.5924C49.6633 28.8065 51.1039 28.9135 52.4376 28.9135C53.6559 28.9135 54.5286 28.7159 55.0554 28.3208C55.5823 27.9256 55.8457 27.267 55.8457 26.345V24.4187C55.5494 24.8468 55.2612 25.176 54.9813 25.4065C54.7014 25.6206 54.331 25.7688 53.87 25.8511C53.4254 25.9499 52.808 25.9993 52.0177 25.9993C50.8487 25.9993 49.9185 25.8923 49.227 25.6782C48.5355 25.4477 48.0333 25.0773 47.7205 24.5669C47.4076 24.04 47.2512 23.3155 47.2512 22.3935V17.7258C47.2512 16.6227 47.3912 15.7748 47.6711 15.1821C47.9674 14.5893 48.4614 14.1695 49.1529 13.9225C49.8609 13.6755 50.8734 13.5521 52.1906 13.5521C53.0467 13.5521 53.7053 13.6015 54.1663 13.7002C54.6109 13.799 54.9484 13.9472 55.1789 14.1448C55.4094 14.3424 55.6728 14.6799 55.9692 15.1574V13.799H59.4515V26.3944C59.4515 28.0903 58.867 29.3087 57.698 30.0496C56.5455 30.8069 54.792 31.1856 52.4376 31.1856ZM53.3019 23.7519C54.0099 23.7519 54.5368 23.7025 54.8825 23.6037C55.2448 23.5049 55.4917 23.3485 55.6235 23.1344C55.7716 22.9039 55.8457 22.5829 55.8457 22.1713V17.3554C55.8457 16.9108 55.7799 16.5815 55.6482 16.3675C55.5164 16.137 55.2612 15.9806 54.8825 15.8983C54.5039 15.8159 53.9111 15.7748 53.1044 15.7748C52.4458 15.7748 51.9601 15.8242 51.6473 15.923C51.3344 16.0217 51.1204 16.1946 51.0051 16.4416C50.9064 16.6721 50.857 17.0179 50.857 17.4789V22.0478C50.857 22.5582 50.9064 22.9286 51.0051 23.1591C51.1204 23.3732 51.3427 23.5296 51.672 23.6284C52.0012 23.7107 52.5446 23.7519 53.3019 23.7519Z" fill="white"/>
<path d="M66.8704 25.9993C66.1295 25.9993 65.5203 25.9746 65.0428 25.9252C64.5653 25.8758 64.0549 25.777 63.5116 25.6288C62.9189 25.4642 62.4414 25.2337 62.0792 24.9373C61.717 24.6245 61.4124 24.1882 61.1654 23.6284C60.9184 23.085 60.7949 22.4265 60.7949 21.6526V18.121C60.7949 17.3307 60.9184 16.6392 61.1654 16.0464C61.4124 15.4537 61.7334 14.9927 62.1286 14.6634C62.4743 14.3835 62.9271 14.153 63.4869 13.9719C64.0632 13.7743 64.6229 13.6508 65.1663 13.6015C65.7919 13.5685 66.36 13.5521 66.8704 13.5521C67.6277 13.5521 68.2287 13.5768 68.6732 13.6261C69.1342 13.6591 69.6364 13.7579 70.1797 13.9225C70.7725 14.1036 71.2499 14.3506 71.6122 14.6634C71.9908 14.9762 72.3119 15.4208 72.5753 15.997C72.8223 16.5898 72.9458 17.2977 72.9458 18.121V21.6526C72.9458 22.3935 72.8223 23.0439 72.5753 23.6037C72.3448 24.1635 72.0402 24.5998 71.6615 24.9126C71.3323 25.1925 70.8795 25.423 70.3032 25.6041C69.7434 25.7688 69.1919 25.8758 68.6485 25.9252C68.1546 25.9746 67.5619 25.9993 66.8704 25.9993ZM66.8704 23.7519C67.5454 23.7519 68.0558 23.7025 68.4016 23.6037C68.7473 23.4884 68.9861 23.3155 69.1178 23.085C69.266 22.8545 69.34 22.517 69.34 22.0725V17.5529C69.34 16.8944 69.1672 16.4334 68.8214 16.1699C68.4757 15.9065 67.8253 15.7748 66.8704 15.7748C65.9154 15.7748 65.2651 15.9065 64.9193 16.1699C64.5736 16.4334 64.4007 16.8944 64.4007 17.5529V22.0725C64.4007 22.517 64.4665 22.8545 64.5983 23.085C64.7464 23.3155 64.9934 23.4884 65.3392 23.6037C65.6849 23.7025 66.1953 23.7519 66.8704 23.7519Z" fill="white"/>
<path d="M74.3732 8.46451H77.9789V25.7523H74.3732V8.46451Z" fill="white"/>
<path d="M84.3563 25.9993C82.9404 25.9993 81.8949 25.9005 81.2198 25.7029C80.5448 25.4889 80.0755 25.0937 79.8121 24.5175C79.5487 23.9412 79.4169 23.0439 79.4169 21.8255V17.1578C79.4169 15.8406 79.7874 14.9104 80.5283 14.3671C81.2857 13.8237 82.504 13.5521 84.1834 13.5521C84.9737 13.5521 85.5912 13.6015 86.0357 13.7002C86.4967 13.7826 86.8672 13.939 87.1471 14.1695C87.4269 14.3835 87.7151 14.7046 88.0114 15.1327V8.46451H91.6172V25.7523H88.1349V24.394C87.8386 24.8715 87.5669 25.209 87.3199 25.4065C87.0894 25.5877 86.7601 25.7276 86.3321 25.8264C85.8875 25.9416 85.2289 25.9993 84.3563 25.9993ZM85.2701 23.7519C86.0769 23.7519 86.6696 23.7107 87.0483 23.6284C87.427 23.546 87.6822 23.3979 87.8139 23.1838C87.9456 22.9533 88.0114 22.6158 88.0114 22.1713V17.3554C88.0114 16.9438 87.9374 16.6309 87.7892 16.4169C87.6575 16.1864 87.4105 16.0217 87.0483 15.923C86.7025 15.8242 86.1756 15.7748 85.4677 15.7748C84.7103 15.7748 84.167 15.8242 83.8377 15.923C83.5084 16.0053 83.2861 16.1617 83.1709 16.3922C83.0721 16.6062 83.0227 16.9685 83.0227 17.4789V22.0478C83.0227 22.5088 83.0721 22.8628 83.1709 23.1097C83.2861 23.3402 83.5001 23.5049 83.813 23.6037C84.1258 23.7025 84.6115 23.7519 85.2701 23.7519Z" fill="white"/>
<path d="M93.4052 9.47708H97.0109V12.3913H93.4052V9.47708ZM93.4052 13.799H97.0109V25.7523H93.4052V13.799Z" fill="white"/>
<path d="M98.8935 8.46451H102.499V25.7523H98.8935V8.46451Z" fill="white"/>
<path d="M110.013 25.9993C109.272 25.9993 108.663 25.9746 108.185 25.9252C107.708 25.8758 107.197 25.777 106.654 25.6288C106.061 25.4642 105.584 25.2337 105.221 24.9373C104.859 24.6245 104.555 24.1882 104.308 23.6284C104.061 23.085 103.937 22.4265 103.937 21.6526V18.121C103.937 17.3307 104.061 16.6392 104.308 16.0464C104.555 15.4537 104.876 14.9927 105.271 14.6634C105.617 14.3835 106.069 14.153 106.629 13.9719C107.205 13.7743 107.765 13.6508 108.309 13.6015C108.934 13.5685 109.502 13.5521 110.013 13.5521C110.77 13.5521 111.371 13.5768 111.816 13.6261C112.277 13.6591 112.779 13.7579 113.322 13.9225C113.915 14.1036 114.392 14.3506 114.754 14.6634C115.133 14.9762 115.454 15.4208 115.718 15.997C115.965 16.5898 116.088 17.2977 116.088 18.121V21.6526C116.088 22.3935 115.965 23.0439 115.718 23.6037C115.487 24.1635 115.183 24.5998 114.804 24.9126C114.475 25.1925 114.022 25.423 113.446 25.6041C112.886 25.7688 112.334 25.8758 111.791 25.9252C111.297 25.9746 110.704 25.9993 110.013 25.9993ZM110.013 23.7519C110.688 23.7519 111.198 23.7025 111.544 23.6037C111.89 23.4884 112.128 23.3155 112.26 23.085C112.408 22.8545 112.482 22.517 112.482 22.0725V17.5529C112.482 16.8944 112.309 16.4334 111.964 16.1699C111.618 15.9065 110.968 15.7748 110.013 15.7748C109.058 15.7748 108.407 15.9065 108.062 16.1699C107.716 16.4334 107.543 16.8944 107.543 17.5529V22.0725C107.543 22.517 107.609 22.8545 107.741 23.085C107.889 23.3155 108.136 23.4884 108.481 23.6037C108.827 23.7025 109.338 23.7519 110.013 23.7519Z" fill="white"/>
<path d="M123.245 25.9993C122.62 25.9993 122.126 25.9828 121.763 25.9499C121.401 25.9334 120.957 25.8923 120.43 25.8264C119.903 25.7605 119.467 25.6453 119.121 25.4806C118.791 25.316 118.446 25.069 118.084 24.7397C117.408 24.1799 117.071 23.225 117.071 21.8749V17.8987C117.071 16.812 117.318 15.9065 117.812 15.1821C117.993 14.9186 118.256 14.6799 118.602 14.4658C118.964 14.2353 119.327 14.0542 119.689 13.9225C119.985 13.8237 120.38 13.7414 120.874 13.6755C121.368 13.6097 121.805 13.5685 122.183 13.5521H123.492C124.414 13.5521 125.624 13.7002 127.123 13.9966V16.3675C125.427 15.9723 124.126 15.7748 123.22 15.7748C121.558 15.7748 120.726 16.3346 120.726 17.4542V21.8502C120.726 23.118 121.64 23.7519 123.467 23.7519C124.357 23.7519 125.633 23.5707 127.295 23.2085V25.5794C125.797 25.8593 124.447 25.9993 123.245 25.9993Z" fill="white"/>
<path d="M127.849 8.46451H131.455V25.7523H127.849V8.46451ZM131.603 19.0348L135.53 13.799H139.654L135.505 19.0101L140 25.7523H135.925L131.603 19.0348Z" fill="white"/>
</svg>
